<svg width="375" height="812" viewBox="0 0 375 812" fill="none" xmlns="http://www.w3.org/2000/svg">
<g clip-path="url(#clip0_83_5626)">
<path fill-rule="evenodd" clip-rule="evenodd" d="M375 0H-2.28882e-05V319.06L-62.9739 356.758C-66.0116 358.577 -67.8614 361.866 -67.8373 365.406C-67.8132 368.947 -65.9188 372.211 -62.8565 373.987L-2.28882e-05 410.462V675.469L-39.5819 699.821L-48.099 705.061L-37.6188 722.096L-29.1017 716.856L-2.28882e-05 698.951V812H375V117.883L459.298 67.419L467.878 62.2827L457.606 45.1225L449.026 50.2588L375 94.573V0ZM-2.28882e-05 342.37V319.06L375 94.573V117.883L-2.28882e-05 342.37ZM-2.28882e-05 342.37V387.338L-38.1443 365.204L-2.28882e-05 342.37ZM-2.28882e-05 387.338V410.462L221.667 539.09L-2.28882e-05 675.469V698.951L246.399 547.356C249.396 545.512 251.203 542.228 251.158 538.71C251.113 535.191 249.221 531.955 246.178 530.189L-2.28882e-05 387.338Z" fill="#F1F5FE"/>
</g>
<defs>
<clipPath id="clip0_83_5626">
<rect width="375" height="812" fill="white"/>
</clipPath>
</defs>
</svg>
