<svg width="101" height="130" viewBox="0 0 101 130" fill="none" xmlns="http://www.w3.org/2000/svg">
<path d="M0.162964 29.5156L50.3493 58.2183V129.913L0.162964 101.235V29.5156Z" fill="#E26262"/>
<path d="M50.3489 58.1939L100.535 29.4912V101.236L50.3489 129.938V58.1939Z" fill="#F77E7E"/>
<path d="M0.162964 29.5168L50.3493 0.838867L100.536 29.5168L50.3493 58.1946L0.162964 29.5168Z" fill="#FC9292"/>
<path d="M6.4364 29.516L50.3494 4.42285L94.2624 29.516L50.5735 54.6092L6.4364 29.516Z" fill="#CF7070"/>
<path d="M50.3489 36.4616L75.442 22.3467V29.5162L50.3489 43.8551V36.4616Z" fill="#F87777"/>
<path d="M25.256 29.5161V22.3467L50.3491 36.6856V43.8551L25.256 29.5161Z" fill="#E26262"/>
<path d="M25.256 22.3468L50.3491 8.00781L75.4423 22.3468L50.3491 36.6857L25.256 22.3468Z" fill="#FC9292"/>
<path d="M3.30017 45.6484L8.00514 48.337V55.5065L3.30017 52.8179V45.6484Z" fill="#962929"/>
<path d="M3.97241 46.0391L8.00524 48.3374V54.6107L3.97241 52.3702V46.0391Z" fill="#B43E3E"/>
<path d="M3.30042 59.9863L8.00538 62.6749V69.8444L3.30042 67.1558V59.9863Z" fill="#962929"/>
<path d="M3.97278 60.376L8.00561 62.6743V68.9476L3.97278 66.7071V60.376Z" fill="#B43E3E"/>
<path d="M3.30042 74.3252L8.00538 77.0137V84.1832L3.30042 81.4947V74.3252Z" fill="#962929"/>
<path d="M3.97278 74.7149L8.00561 77.0132V83.2865L3.97278 81.046V74.7149Z" fill="#B43E3E"/>
<path d="M3.30017 88.6641L8.00514 91.3526V98.5221L3.30017 95.8336V88.6641Z" fill="#962929"/>
<path d="M3.97266 89.0537L8.00548 91.352V97.6253L3.97266 95.3849V89.0537Z" fill="#B43E3E"/>
<path d="M15.8466 52.8174L20.5515 55.5059V62.6754L15.8466 59.9869V52.8174Z" fill="#962929"/>
<path d="M16.5188 53.207L20.5516 55.5054V61.7787L16.5188 59.5382V53.207Z" fill="#B43E3E"/>
<path d="M15.8466 67.1562L20.5515 69.8448V77.0143L15.8466 74.3257V67.1562Z" fill="#962929"/>
<path d="M16.5188 67.5459L20.5516 69.8442V76.1175L16.5188 73.8771V67.5459Z" fill="#B43E3E"/>
<path d="M15.8464 81.4951L20.5514 84.1837V91.3531L15.8464 88.6646V81.4951Z" fill="#962929"/>
<path d="M16.5188 81.8848L20.5516 84.1831V90.4564L16.5188 88.2159V81.8848Z" fill="#B43E3E"/>
<path d="M15.8464 95.834L20.5514 98.5225V105.692L15.8464 103.003V95.834Z" fill="#962929"/>
<path d="M16.5188 96.2236L20.5516 98.522V104.795L16.5188 102.555V96.2236Z" fill="#B43E3E"/>
<path d="M27.9453 59.5381L32.6503 62.2266V69.3961L27.9453 66.7076V59.5381Z" fill="#962929"/>
<path d="M28.6177 59.9277L32.6505 62.2261V68.4994L28.6177 66.2589V59.9277Z" fill="#B43E3E"/>
<path d="M27.9453 73.8779L32.6503 76.5665V83.736L27.9453 81.0474V73.8779Z" fill="#962929"/>
<path d="M28.6177 74.2676L32.6505 76.5659V82.8392L28.6177 80.5988V74.2676Z" fill="#B43E3E"/>
<path d="M27.9453 88.2168L32.6503 90.9053V98.0748L27.9453 95.3863V88.2168Z" fill="#962929"/>
<path d="M28.6177 88.6065L32.6505 90.9048V97.1781L28.6177 94.9376V88.6065Z" fill="#B43E3E"/>
<path d="M27.9453 102.556L32.6503 105.244V112.414L27.9453 109.725V102.556Z" fill="#962929"/>
<path d="M28.6177 102.945L32.6505 105.244V111.517L28.6177 109.276V102.945Z" fill="#B43E3E"/>
<path d="M40.4913 66.708L45.1963 69.3966V76.566L40.4913 73.8775V66.708Z" fill="#962929"/>
<path d="M41.1637 67.0977L45.1965 69.396V75.6693L41.1637 73.4288V67.0977Z" fill="#B43E3E"/>
<path d="M40.4913 81.0479L45.1963 83.7364V90.9059L40.4913 88.2173V81.0479Z" fill="#962929"/>
<path d="M41.1637 81.4375L45.1965 83.7358V90.0091L41.1637 87.7687V81.4375Z" fill="#B43E3E"/>
<path d="M40.4913 95.3857L45.1963 98.0743V105.244L40.4913 102.555V95.3857Z" fill="#962929"/>
<path d="M41.1637 95.7754L45.1965 98.0737V104.347L41.1637 102.107V95.7754Z" fill="#B43E3E"/>
<path d="M40.4913 109.726L45.1963 112.414V119.584L40.4913 116.895V109.726Z" fill="#962929"/>
<path d="M41.1637 110.115L45.1965 112.414V118.687L41.1637 116.446V110.115Z" fill="#B43E3E"/>
<path d="M53.4846 70.9645L57.9655 68.5V75.6695L53.4846 78.134V70.9645Z" fill="#962929"/>
<path d="M53.4846 70.9645L57.2934 68.8711V75.2214L53.4846 77.2378V70.9645Z" fill="#B43E3E"/>
<path d="M55.2787 85.3043L59.7596 82.8398V90.0093L55.2787 92.4738V85.3043Z" fill="#962929"/>
<path d="M55.2784 85.3044L59.0872 83.2109V89.5612L55.2784 91.5777V85.3044Z" fill="#B43E3E"/>
<path d="M55.2787 98.2985L59.7596 95.834V103.003L55.2787 105.468V98.2985Z" fill="#962929"/>
<path d="M55.2784 98.2985L59.0872 96.2051V102.555L55.2784 104.572V98.2985Z" fill="#B43E3E"/>
<path d="M55.2787 112.19L59.7596 109.726V116.895L55.2787 119.36V112.19Z" fill="#962929"/>
<path d="M55.2784 112.19L59.0872 110.097V116.447L55.2784 118.463V112.19Z" fill="#B43E3E"/>
<path d="M66.0327 63.7956L70.5136 61.3311V68.5005L66.0327 70.965V63.7956Z" fill="#962929"/>
<path d="M66.0327 63.7956L69.8415 61.7021V68.0525L66.0327 70.0689V63.7956Z" fill="#B43E3E"/>
<path d="M67.8245 78.1344L72.3054 75.6699V82.8394L67.8245 85.3039V78.1344Z" fill="#962929"/>
<path d="M67.8245 78.1345L71.6332 76.041V82.3913L67.8245 84.4077V78.1345Z" fill="#B43E3E"/>
<path d="M67.8245 91.1295L72.3054 88.665V95.8345L67.8245 98.299V91.1295Z" fill="#962929"/>
<path d="M67.8245 91.1296L71.6332 89.0361V95.3864L67.8245 97.4029V91.1296Z" fill="#B43E3E"/>
<path d="M67.8245 105.02L72.3054 102.556V109.725L67.8245 112.19V105.02Z" fill="#962929"/>
<path d="M67.8245 105.02L71.6332 102.927V109.277L67.8245 111.293V105.02Z" fill="#B43E3E"/>
<path d="M78.1315 56.6256L82.6124 54.1611V61.3306L78.1315 63.7951V56.6256Z" fill="#962929"/>
<path d="M78.1315 56.6257L81.9403 54.5322V60.8825L78.1315 62.899V56.6257Z" fill="#B43E3E"/>
<path d="M79.9224 70.9645L84.4033 68.5V75.6695L79.9224 78.134V70.9645Z" fill="#962929"/>
<path d="M79.9224 70.9645L83.7311 68.8711V75.2214L79.9224 77.2378V70.9645Z" fill="#B43E3E"/>
<path d="M79.9224 83.9596L84.4033 81.4951V88.6646L79.9224 91.1291V83.9596Z" fill="#962929"/>
<path d="M79.9224 83.9596L83.7311 81.8662V88.2165L79.9224 90.2329V83.9596Z" fill="#B43E3E"/>
<path d="M79.9224 97.8502L84.4033 95.3857V102.555L79.9224 105.02V97.8502Z" fill="#962929"/>
<path d="M79.9224 97.8503L83.7311 95.7568V102.107L79.9224 104.124V97.8503Z" fill="#B43E3E"/>
<path d="M90.6777 49.4557L95.1587 46.9912V54.1607L90.6777 56.6252V49.4557Z" fill="#962929"/>
<path d="M90.6775 49.4557L94.4863 47.3623V53.7126L90.6775 55.729V49.4557Z" fill="#B43E3E"/>
<path d="M92.4705 63.7956L96.9514 61.3311V68.5005L92.4705 70.965V63.7956Z" fill="#962929"/>
<path d="M92.4705 63.7956L96.2792 61.7021V68.0525L92.4705 70.0689V63.7956Z" fill="#B43E3E"/>
<path d="M92.4705 76.7897L96.9514 74.3252V81.4947L92.4705 83.9592V76.7897Z" fill="#962929"/>
<path d="M92.4705 76.7897L96.2792 74.6963V81.0466L92.4705 83.063V76.7897Z" fill="#B43E3E"/>
<path d="M92.4705 90.6813L96.9514 88.2168V95.3863L92.4705 97.8508V90.6813Z" fill="#962929"/>
<path d="M92.4705 90.6813L96.2792 88.5879V94.9382L92.4705 96.9546V90.6813Z" fill="#B43E3E"/>
<path d="M0.162964 33.1016L50.3493 61.7794V65.3642L0.162964 36.6863V33.1016Z" fill="#F88080"/>
<path d="M0.162964 38.9268L50.3493 67.6046V68.9489L0.162964 40.271V38.9268Z" fill="#F88080"/>
<path d="M50.3489 61.7794L100.535 33.1016V36.6863L50.3489 65.3642V61.7794Z" fill="#FF9F9F"/>
<path d="M50.3489 67.6046L100.535 38.9268V40.271L50.3489 68.9489V67.6046Z" fill="#FF9F9F"/>
</svg>
